HIERARCHY
ROOT Hips
{
	OFFSET 0.000000 0.000000 0.000000 
	CHANNELS 6 Xposition Yposition Zposition Zrotation Yrotation Xrotation
	JOINT LeftUpLeg
	{
		OFFSET 1.363060 -1.794630 0.839290 
		CHANNELS 3 Zrotation Yrotation Xrotation
		JOINT LeftLeg
		{
			OFFSET 2.448110 -6.726130 0.000000 
			CHANNELS 3 Zrotation Yrotation Xrotation
			JOINT LeftFoot
			{
				OFFSET 2.562200 -7.039590 0.000000 
				CHANNELS 3 Zrotation Yrotation Xrotation
				JOINT LeftToeBase
				{
					OFFSET 0.157640 -0.433110 2.322550 
					CHANNELS 3 Zrotation Yrotation Xrotation
					End Site
					{
						OFFSET 0.000000 0.000000 0.000000 
					}
				}
			}
		}
	}
	JOINT RightUpLeg
	{
		OFFSET -1.305520 -1.794630 0.839290 
		CHANNELS 3 Zrotation Yrotation Xrotation
		JOINT RightLeg
		{
			OFFSET -2.542530 -6.985550 0.000000 
			CHANNELS 3 Zrotation Yrotation Xrotation
			JOINT RightFoot
			{
				OFFSET -2.568260 -7.056230 0.000000 
				CHANNELS 3 Zrotation Yrotation Xrotation
				JOINT RightToeBase
				{
					OFFSET -0.164730 -0.452590 2.363150 
					CHANNELS 3 Zrotation Yrotation Xrotation
					End Site
					{
						OFFSET 0.000000 0.000000 0.000000 
					}
				}
			}
		}
	}
	JOINT Spine
	{
		OFFSET 0.028270 2.035590 -0.193380 
		CHANNELS 3 Zrotation Yrotation Xrotation
		JOINT Spine1
		{
			OFFSET 0.056720 2.048850 -0.042750 
			CHANNELS 3 Zrotation Yrotation Xrotation
			JOINT Neck1
			{
				OFFSET -0.054170 1.746240 0.172020 
				CHANNELS 3 Zrotation Yrotation Xrotation
				JOINT Head
				{
					OFFSET 0.104070 1.761360 -0.123970 
					CHANNELS 3 Zrotation Yrotation Xrotation
					End Site
					{
						OFFSET 0.000000 0.000000 0.000000 
					}
				}
			}
			JOINT LeftArm
			{
				OFFSET 3.362410 1.200890 -0.311210 
				CHANNELS 3 Zrotation Yrotation Xrotation
				JOINT LeftForeArm
				{
					OFFSET 4.983000 -0.000000 -0.000000 
					CHANNELS 3 Zrotation Yrotation Xrotation
					JOINT LeftHand
					{
						OFFSET 3.483560 -0.000000 -0.000000 
						CHANNELS 3 Zrotation Yrotation Xrotation
						JOINT LeftHandIndex1
						{
							OFFSET 0.715260 -0.000000 -0.000000 
							CHANNELS 3 Zrotation Yrotation Xrotation
							End Site
							{
								OFFSET 0.000000 0.000000 0.000000 
							}
						}
					}
				}
			}
			JOINT RightArm
			{
				OFFSET -3.136600 1.374050 -0.404650 
				CHANNELS 3 Zrotation Yrotation Xrotation
				JOINT RightForeArm
				{
					OFFSET -5.241900 -0.000000 -0.000000 
					CHANNELS 3 Zrotation Yrotation Xrotation
					JOINT RightHand
					{
						OFFSET -3.444170 -0.000000 -0.000000 
						CHANNELS 3 Zrotation Yrotation Xrotation
						JOINT RightHandIndex1
						{
							OFFSET -0.622530 -0.000000 -0.000000 
							CHANNELS 3 Zrotation Yrotation Xrotation
							End Site
							{
								OFFSET 0.000000 0.000000 0.000000 
							}
						}
					}
				}
			}
		}
	}
}
MOTION
Frames: 16
Frame Time: 0.041667
6.212477 17.724944 -20.116859 -6.861415 -5.546553 9.875943 -11.673719 -3.067477 -9.953373 0.508636 5.392220 14.432921 -0.421117 6.589294 -4.355025 0.079000 -1.812800 -4.988600 22.483200 7.570148 -9.145980 -0.631131 -4.910579 12.511167 1.707203 -10.979871 -0.946046 -0.004300 -0.423800 1.164400 3.786829 -0.671026 -2.226900 2.526199 -0.536984 -1.826744 16.743103 -22.754754 -0.551848 7.365000 -11.374500 6.190800 -81.418839 2.793598 47.414165 65.565918 -60.043507 -33.916262 -1.950639 2.317116 -27.217061 -7.125000 0.000000 0.000000 71.793287 0.295173 53.679461 -61.673219 59.529398 -29.504822 1.302740 -0.682240 -34.113027 7.125000 0.000000 0.000000 
6.219353 17.725239 -20.121770 -6.857184 -5.572439 9.897601 -11.704519 -3.067888 -10.003193 0.510243 5.401247 14.455011 -0.422204 6.602275 -4.344599 0.082900 -1.857600 -5.112400 22.448904 7.553525 -9.172311 -0.626881 -4.889492 12.452255 1.701507 -10.954917 -0.926112 -0.005600 -0.481700 1.323500 3.773484 -0.641832 -2.186086 2.531277 -0.522367 -1.806053 16.927592 -22.722438 -0.540479 7.459900 -11.355600 6.246200 -81.391757 2.663533 47.456483 65.428343 -60.013104 -33.807020 -1.945978 2.317531 -27.127924 -7.125000 0.000000 0.000000 71.795280 0.420581 53.681141 -61.546998 59.497249 -29.412893 1.306293 -0.677304 -34.108645 7.125000 0.000000 0.000000 
6.225344 17.726024 -20.125503 -6.886798 -5.616611 9.922980 -11.689270 -3.165018 -9.995331 0.508625 5.400769 14.452252 -0.434530 6.731765 -4.374540 0.078100 -1.803300 -4.962300 22.456082 7.546344 -9.199082 -0.623384 -4.872422 12.403957 1.692912 -10.921395 -0.857079 -0.005400 -0.475700 1.307000 3.812506 -0.670045 -2.228761 2.602168 -0.535528 -1.918519 16.724049 -22.737884 -0.621269 7.377100 -11.371200 6.166400 -81.484480 2.788976 47.354777 65.405599 -60.008864 -33.772043 -1.927346 2.321863 -27.081892 -7.125000 0.000000 0.000000 71.684093 0.315297 53.875715 -61.509041 59.489185 -29.383500 1.305042 -0.677249 -34.076441 7.125000 0.000000 0.000000 
6.231139 17.726810 -20.128155 -6.876595 -5.626208 9.943581 -11.721236 -3.148091 -10.037122 0.508894 5.401819 14.452655 -0.431584 6.702048 -4.351388 0.078300 -1.804900 -4.966800 22.420206 7.522327 -9.214009 -0.620221 -4.855897 12.356517 1.689165 -10.912518 -0.784626 -0.004700 -0.442600 1.216200 3.769416 -0.632226 -2.164015 2.531013 -0.517030 -1.829215 16.841708 -22.703354 -0.674719 7.433900 -11.353500 6.161000 -81.390273 2.629530 47.398443 65.326240 -59.993632 -33.733691 -1.954234 2.310510 -27.102872 -7.125000 0.000000 0.000000 71.762868 0.467551 53.810613 -61.342281 59.447687 -29.258385 1.298581 -0.679732 -34.029806 7.125000 0.000000 0.000000 
6.236149 17.727694 -20.131985 -6.879941 -5.635696 9.975995 -11.731914 -3.175545 -10.074824 0.508112 5.400613 14.446662 -0.433293 6.720692 -4.337250 0.077800 -1.799000 -4.950400 22.401274 7.514536 -9.245695 -0.617051 -4.839910 12.310515 1.686773 -10.907584 -0.735446 -0.004600 -0.439900 1.208800 3.758959 -0.620270 -2.138544 2.523458 -0.510779 -1.812309 16.878976 -22.685469 -0.734226 7.458300 -11.347000 6.139700 -81.368737 2.556193 47.386952 65.247022 -59.981819 -33.690894 -1.974539 2.303213 -27.110575 -7.125000 0.000000 0.000000 71.771820 0.537065 53.832090 -61.217855 59.417123 -29.166464 1.296513 -0.680308 -33.984382 7.125000 0.000000 0.000000 
6.240274 17.728578 -20.136012 -6.882081 -5.641239 10.015929 -11.739113 -3.200988 -10.121215 0.506923 5.397604 14.435237 -0.434313 6.732045 -4.315700 0.077500 -1.795600 -4.941100 22.383137 7.519437 -9.291906 -0.615237 -4.830404 12.282617 1.685874 -10.908286 -0.700204 -0.004700 -0.442000 1.214500 3.754871 -0.607849 -2.111506 2.532212 -0.503886 -1.788381 16.913791 -22.641271 -0.841781 7.490900 -11.331700 6.082400 -81.358527 2.468747 47.369211 65.146165 -59.969842 -33.640183 -2.000750 2.296991 -27.137581 -7.125000 0.000000 0.000000 71.770637 0.609966 53.852884 -61.086182 59.383784 -29.070163 1.293318 -0.681006 -33.939374 7.125000 0.000000 0.000000 
6.243712 17.729659 -20.140727 -6.879348 -5.627422 10.063515 -11.746058 -3.228403 -10.187403 0.506353 5.396144 14.427919 -0.433340 6.722065 -4.287009 0.077700 -1.797600 -4.946600 22.362188 7.523293 -9.348064 -0.613457 -4.821231 12.255308 1.687726 -10.921280 -0.672632 -0.004900 -0.450500 1.237900 3.749169 -0.597008 -2.082365 2.541365 -0.497654 -1.755621 16.942042 -22.609228 -0.927971 7.515200 -11.320200 6.039500 -81.343297 2.358386 47.359236 65.031346 -59.955250 -33.581301 -2.030682 2.288746 -27.178335 -7.125000 0.000000 0.000000 71.775639 0.697770 53.857182 -60.945411 59.347560 -28.968057 1.290313 -0.682220 -33.894358 7.125000 0.000000 0.000000 
6.246659 17.730641 -20.145835 -6.874916 -5.604692 10.115492 -11.751002 -3.255369 -10.264299 0.505991 5.395032 14.421305 -0.431267 6.701695 -4.255769 0.077800 -1.799300 -4.951300 22.341556 7.527552 -9.414924 -0.612256 -4.814823 12.235715 1.690388 -10.937342 -0.653872 -0.005200 -0.464700 1.276800 3.747950 -0.589898 -2.056980 2.561861 -0.493007 -1.726276 16.952762 -22.583255 -1.000585 7.530600 -11.311200 6.001800 -81.338766 2.249819 47.346382 64.910866 -59.938474 -33.513418 -2.057165 2.280417 -27.223779 -7.125000 0.000000 0.000000 71.771438 0.781626 53.866476 -60.804979 59.310415 -28.866254 1.286282 -0.683454 -33.857542 7.125000 0.000000 0.000000 
6.249311 17.731525 -20.151041 -6.868344 -5.572377 10.167586 -11.756250 -3.287088 -10.345802 0.505876 5.395020 14.417911 -0.428757 6.676561 -4.224716 0.077900 -1.800600 -4.954800 22.319967 7.524932 -9.486797 -0.611440 -4.810322 12.221379 1.693051 -10.953056 -0.637559 -0.005500 -0.478900 1.315900 3.744469 -0.580603 -2.035519 2.578364 -0.487456 -1.704129 16.926179 -22.574317 -1.027211 7.521200 -11.307400 5.984900 -81.328357 2.138309 47.346715 64.785218 -59.918229 -33.435105 -2.080274 2.270739 -27.278691 -7.125000 0.000000 0.000000 71.771049 0.862481 53.867228 -60.664570 59.272593 -28.764732 1.281397 -0.685876 -33.833998 7.125000 0.000000 0.000000 
6.251668 17.732311 -20.156050 -6.862369 -5.537745 10.215327 -11.760538 -3.324631 -10.421963 0.506090 5.396434 14.418739 -0.426831 6.657731 -4.199428 0.077800 -1.799100 -4.950900 22.300413 7.515702 -9.557077 -0.610806 -4.806478 12.209353 1.694850 -10.965091 -0.618978 -0.005700 -0.489400 1.344700 3.739243 -0.570070 -2.020045 2.590363 -0.481464 -1.696227 16.884233 -22.577489 -1.015520 7.501300 -11.307600 5.988600 -81.316649 2.038200 47.356840 64.665501 -59.895468 -33.350375 -2.095285 2.261275 -27.333764 -7.125000 0.000000 0.000000 71.772889 0.933491 53.868284 -60.527258 59.235368 -28.665126 1.275890 -0.688986 -33.827963 7.125000 0.000000 0.000000 
6.253632 17.732900 -20.160765 -6.861030 -5.510494 10.258628 -11.759194 -3.371174 -10.486982 0.506525 5.399345 14.424084 -0.426700 6.658560 -4.181302 0.077800 -1.799200 -4.951100 22.287719 7.509409 -9.623800 -0.610510 -4.804451 12.202281 1.696078 -10.973985 -0.601426 -0.005900 -0.495200 1.360700 3.731785 -0.551870 -2.010611 2.598037 -0.471804 -1.701954 16.831705 -22.595010 -0.947759 7.471000 -11.311800 6.023500 -81.296511 1.952033 47.378204 64.559448 -59.873299 -33.270971 -2.107453 2.250903 -27.397658 -7.125000 0.000000 0.000000 71.780600 0.993174 53.866388 -60.395871 59.199240 -28.568421 1.269782 -0.690679 -33.839636 7.125000 0.000000 0.000000 
6.255204 17.733391 -20.164890 -6.862047 -5.487168 10.295213 -11.754825 -3.422793 -10.540381 0.507235 5.403846 14.434557 -0.427920 6.672118 -4.170448 0.077800 -1.799200 -4.950900 22.279022 7.500717 -9.686409 -0.610646 -4.805164 12.203207 1.695975 -10.976160 -0.585638 -0.006000 -0.498800 1.370700 3.723743 -0.531739 -2.005903 2.601944 -0.461478 -1.722815 16.770671 -22.605809 -0.885258 7.438900 -11.313600 6.050900 -81.274736 1.876576 47.407966 64.460129 -59.852497 -33.196443 -2.116929 2.243099 -27.455809 -7.125000 0.000000 0.000000 71.790795 1.043759 53.866236 -60.265991 59.163815 -28.473257 1.264465 -0.692801 -33.861950 7.125000 0.000000 0.000000 
6.255597 17.734177 -20.170685 -6.860032 -5.424267 10.348617 -11.741720 -3.481111 -10.632598 0.508707 5.409836 14.448564 -0.425123 6.644675 -4.144283 0.078000 -1.801300 -4.956900 22.272887 7.490360 -9.775748 -0.611527 -4.809148 12.212398 1.701409 -11.003808 -0.583754 -0.006100 -0.505900 1.390200 3.716812 -0.527362 -2.007690 2.608735 -0.459164 -1.750189 16.707723 -22.622270 -0.816265 7.402600 -11.317100 6.083800 -81.244603 1.792669 47.448032 64.369599 -59.832946 -33.129511 -2.124802 2.237241 -27.499240 -7.125000 0.000000 0.000000 71.808783 1.106213 53.860211 -60.132731 59.127203 -28.375776 1.259848 -0.695047 -33.882448 7.125000 0.000000 0.000000 
6.254615 17.734963 -20.177757 -6.854595 -5.336255 10.415761 -11.721837 -3.532308 -10.759320 0.510910 5.417102 14.465798 -0.418642 6.577831 -4.104677 0.078600 -1.808200 -4.975900 22.268860 7.484584 -9.886134 -0.613131 -4.816497 12.230713 1.711252 -11.050787 -0.596508 -0.006400 -0.517700 1.422500 3.718185 -0.538429 -2.011751 2.634083 -0.464123 -1.777370 16.659601 -22.605407 -0.810165 7.384800 -11.309000 6.076600 -81.223560 1.695598 47.490683 64.268276 -59.812512 -33.056471 -2.127977 2.237962 -27.512025 -7.125000 0.000000 0.000000 71.816722 1.181663 53.863242 -59.987565 59.085941 -28.268517 1.252499 -0.696622 -33.890766 7.125000 0.000000 0.000000 
6.253534 17.735748 -20.184043 -6.850639 -5.257132 10.475092 -11.701575 -3.579891 -10.873526 0.513315 5.425188 14.485750 -0.412844 6.518487 -4.072115 0.079000 -1.813100 -4.989500 22.267136 7.474640 -9.989604 -0.615047 -4.826032 12.255305 1.718610 -11.085558 -0.610222 -0.006700 -0.528300 1.451700 3.717298 -0.550537 -2.009026 2.649919 -0.469677 -1.790667 16.613520 -22.584412 -0.817988 7.369200 -11.299300 6.062400 -81.199799 1.586193 47.539121 64.162689 -59.790583 -32.980216 -2.127437 2.242241 -27.489270 -7.125000 0.000000 0.000000 71.830315 1.273424 53.866115 -59.825815 59.039721 -28.148477 1.243713 -0.698726 -33.865295 7.125000 0.000000 0.000000 
6.252355 17.736141 -20.189249 -6.847800 -5.195673 10.522829 -11.684650 -3.607814 -10.973081 0.515781 5.434095 14.508253 -0.407185 6.460241 -4.048623 0.079200 -1.815600 -4.996400 22.266883 7.457840 -10.078388 -0.616893 -4.834831 12.278466 1.722191 -11.102859 -0.619392 -0.006900 -0.535600 1.471600 3.713967 -0.559770 -1.998882 2.657178 -0.473895 -1.790315 16.577082 -22.561494 -0.838426 7.359200 -11.289200 6.043700 -81.176822 1.470018 47.589533 64.054253 -59.767301 -32.899964 -2.122733 2.249097 -27.427796 -7.125000 0.000000 0.000000 71.847004 1.377286 53.867128 -59.662382 58.992908 -28.027306 1.234802 -0.701613 -33.806187 7.125000 0.000000 0.000000 
